<svg width="7259" height="1164" viewBox="0 0 7259 1164" fill="none" xmlns="http://www.w3.org/2000/svg">
<ellipse cx="621.452" cy="581.452" rx="149.592" ry="581.452" fill="black"/>
<g filter="url(#filter0_f_956_46549)">
<ellipse cx="914.418" cy="581.452" rx="75.1211" ry="507.476" fill="black"/>
</g>
<g filter="url(#filter1_f_956_46549)">
<ellipse cx="327.828" cy="581.452" rx="75.1211" ry="507.476" fill="black"/>
</g>
<g filter="url(#filter2_f_956_46549)">
<ellipse cx="1086.47" cy="579.979" rx="28.6787" ry="346.182" fill="black"/>
</g>
<g filter="url(#filter3_f_956_46549)">
<ellipse cx="155.776" cy="579.979" rx="28.6787" ry="346.182" fill="black"/>
</g>
<g filter="url(#filter4_f_956_46549)">
<ellipse cx="1193.48" cy="568.935" rx="9.4223" ry="125.584" fill="black"/>
</g>
<g filter="url(#filter5_f_956_46549)">
<ellipse cx="49.4223" cy="568.935" rx="9.4223" ry="125.584" fill="black"/>
</g>
<path d="M1906.42 935.61C1836.75 935.61 1781.02 924.812 1739.22 903.216C1698.12 880.924 1667.82 853.058 1648.31 819.62C1629.5 786.181 1618.7 752.742 1615.92 719.304H1776.84C1780.32 737.416 1787.64 754.136 1798.79 769.462C1810.63 784.091 1825.95 795.586 1844.76 803.945C1864.27 812.305 1887.61 816.485 1914.78 816.485C1948.21 816.485 1972.25 810.912 1986.88 799.765C2001.51 787.923 2008.82 772.945 2008.82 754.832C2008.82 738.113 2001.85 724.18 1987.92 713.034C1974.69 701.191 1952.74 690.393 1922.09 680.64L1846.85 655.562C1810.63 643.022 1777.19 629.438 1746.54 614.808C1715.89 599.482 1691.15 579.976 1672.35 556.291C1654.23 532.605 1645.18 501.953 1645.18 464.335C1645.18 408.604 1666.42 363.671 1708.92 329.535C1751.41 294.704 1811.67 277.288 1889.7 277.288C1946.12 277.288 1992.1 285.996 2027.63 303.412C2063.86 320.828 2091.02 344.165 2109.14 373.424C2127.25 401.986 2137.7 433.683 2140.49 468.515H1985.83C1982.35 443.436 1971.9 424.278 1954.48 411.042C1937.07 397.109 1913.38 390.143 1883.43 390.143C1856.26 390.143 1835.71 395.368 1821.77 405.817C1808.54 416.267 1801.92 430.548 1801.92 448.66C1801.92 466.773 1809.23 481.751 1823.86 493.593C1838.49 505.436 1860.79 516.234 1890.74 525.987L1965.98 550.021C2002.2 561.167 2035.29 574.403 2065.25 589.729C2095.9 604.359 2120.28 623.865 2138.4 648.247C2156.51 671.933 2165.56 702.933 2165.56 741.248C2165.56 799.765 2143.27 846.788 2098.69 882.317C2054.8 917.845 1990.71 935.61 1906.42 935.61Z" fill="#2B2B2B"/>
<path d="M2229.86 1128.93V292.962H2386.61V374.469H2411.68C2426.31 347.996 2447.56 325.704 2475.43 307.591C2503.29 289.479 2540.56 280.423 2587.24 280.423C2644.36 280.423 2691.38 294.704 2728.31 323.266C2765.23 351.131 2792.74 389.795 2810.86 439.256C2828.97 488.02 2838.03 544.1 2838.03 607.494C2838.03 671.584 2828.62 728.36 2809.81 777.821C2791.7 826.586 2763.83 864.553 2726.22 891.721C2689.29 918.89 2642.97 932.475 2587.24 932.475C2546.83 932.475 2513.39 925.16 2486.92 910.531C2460.45 895.901 2439.55 876.047 2424.22 850.968H2399.14V1128.93H2229.86ZM2539.17 813.35C2577.48 813.35 2607.44 796.282 2629.03 762.147C2651.33 727.315 2662.47 675.416 2662.47 606.449C2662.47 537.482 2651.33 485.93 2629.03 451.795C2607.44 416.963 2577.48 399.547 2539.17 399.547C2496.67 399.547 2462.54 418.008 2436.76 454.93C2411.68 491.852 2399.14 542.358 2399.14 606.449C2399.14 669.843 2411.68 720.349 2436.76 757.967C2462.54 794.889 2496.67 813.35 2539.17 813.35Z" fill="#2B2B2B"/>
<path d="M3175.79 935.61C3076.87 935.61 3001.28 906.003 2949.04 846.788C2897.48 787.574 2871.71 707.113 2871.71 605.404C2871.71 537.133 2883.2 478.616 2906.19 429.851C2929.88 381.087 2964.01 343.468 3008.6 316.996C3053.88 290.524 3108.91 277.288 3173.7 277.288C3267.05 277.288 3338.46 305.502 3387.92 361.929C3438.08 418.357 3463.15 501.257 3463.15 610.629V646.157H3036.81C3040.3 699.101 3053.88 740.9 3077.57 771.552C3101.95 801.507 3134.69 816.485 3175.79 816.485C3208.53 816.485 3234.66 806.732 3254.16 787.226C3274.37 767.72 3287.6 745.079 3293.87 719.304H3454.79C3448.52 757.619 3434.59 793.147 3413 825.889C3391.4 858.631 3361.1 885.103 3322.09 905.306C3283.07 925.508 3234.31 935.61 3175.79 935.61ZM3036.81 539.572H3298.05C3295.26 492.2 3283.42 455.627 3262.52 429.851C3241.62 403.379 3211.67 390.143 3172.66 390.143C3134.34 390.143 3103.34 402.682 3079.66 427.761C3056.67 452.144 3042.39 489.414 3036.81 539.572Z" fill="#2B2B2B"/>
<path d="M3790.72 935.61C3693.88 935.61 3620.04 906.003 3569.18 846.788C3518.33 787.574 3492.9 707.461 3492.9 606.449C3492.9 499.863 3519.72 418.357 3573.36 361.929C3627.7 305.502 3700.85 277.288 3792.81 277.288C3875.7 277.288 3940.84 299.232 3988.21 343.12C4035.58 387.008 4063.8 446.919 4072.85 522.852H3905.66C3900.78 481.751 3888.59 450.402 3869.09 428.806C3849.58 407.21 3824.5 396.413 3793.85 396.413C3753.45 396.413 3722.44 414.525 3700.85 450.75C3679.25 486.975 3668.46 538.875 3668.46 606.449C3668.46 674.022 3678.9 725.922 3699.8 762.147C3721.4 798.372 3752.4 816.485 3792.81 816.485C3824.15 816.485 3849.58 805.687 3869.09 784.091C3888.59 761.799 3900.78 730.45 3905.66 690.045H4072.85C4063.1 764.585 4034.19 824.148 3986.12 868.732C3938.75 913.317 3873.61 935.61 3790.72 935.61Z" fill="#2B2B2B"/>
<path d="M4236.83 919.935C4220.81 901.126 4207.92 878.485 4198.17 852.013C4189.11 825.541 4184.58 785.833 4184.58 732.888V412.087H4098.9V292.962H4186.67V136.219H4352.82V292.962H4454.18V412.087H4352.82V715.124C4352.82 770.158 4359.09 812.305 4371.63 841.564C4384.17 870.822 4399.15 894.856 4416.56 913.666V919.935H4236.83Z" fill="#2B2B2B"/>
<path d="M4522.74 919.935V292.962H4677.39V407.907H4702.47C4706.65 387.008 4714.31 367.502 4725.46 349.39C4737.3 330.58 4755.07 315.603 4778.75 304.457C4802.44 292.614 4834.14 286.692 4873.84 286.692H4907.28V439.256H4861.3C4802.09 439.256 4758.9 454.233 4731.73 484.189C4705.26 514.144 4692.02 559.077 4692.02 618.988V919.935H4522.74Z" fill="#2B2B2B"/>
<path d="M5180.98 935.61C5111.32 935.61 5058.72 913.666 5023.19 869.777C4987.66 825.889 4969.9 766.327 4969.9 691.09V292.962H5139.18V662.876C5139.18 705.371 5146.84 738.461 5162.17 762.147C5177.5 785.833 5202.23 797.675 5236.36 797.675C5277.46 797.675 5309.16 781.653 5331.45 749.608C5353.75 717.562 5364.89 678.202 5364.89 631.528V292.962H5534.17V919.935H5381.61V825.889H5356.53C5346.08 857.238 5326.92 883.362 5299.06 904.261C5271.19 925.16 5231.83 935.61 5180.98 935.61Z" fill="#2B2B2B"/>
<path d="M5650.88 919.935V292.962H5807.63V387.008H5832.71C5844.55 357.053 5863.36 331.277 5889.13 309.681C5914.91 288.086 5952.18 277.288 6000.94 277.288C6044.13 277.288 6080.01 287.041 6108.57 306.546C6137.83 325.356 6160.12 352.176 6175.45 387.008H6200.53C6213.07 355.659 6232.57 329.535 6259.05 308.636C6285.52 287.737 6322.09 277.288 6368.77 277.288C6436.34 277.288 6486.85 299.232 6520.29 343.12C6553.72 387.008 6570.44 446.57 6570.44 521.807V919.935H6401.16V550.021C6401.16 507.526 6394.19 474.436 6380.26 450.75C6366.33 427.065 6343.69 415.222 6312.34 415.222C6274.02 415.222 6244.77 431.244 6224.56 463.29C6205.06 495.335 6195.3 534.695 6195.3 581.37V919.935H6026.02V550.021C6026.02 507.526 6019.06 474.436 6005.12 450.75C5991.19 427.065 5968.55 415.222 5937.2 415.222C5899.58 415.222 5870.67 431.244 5850.47 463.29C5830.27 495.335 5820.17 534.695 5820.17 581.37V919.935H5650.88Z" fill="#2B2B2B"/>
<path d="M6912.7 935.61C6843.04 935.61 6787.3 924.812 6745.51 903.216C6704.4 880.924 6674.1 853.058 6654.59 819.62C6635.79 786.181 6624.99 752.742 6622.2 719.304H6783.12C6786.61 737.416 6793.92 754.136 6805.07 769.462C6816.91 784.091 6832.24 795.586 6851.05 803.945C6870.55 812.305 6893.89 816.485 6921.06 816.485C6954.5 816.485 6978.53 810.912 6993.16 799.765C7007.79 787.923 7015.1 772.945 7015.1 754.832C7015.1 738.113 7008.14 724.18 6994.21 713.034C6980.97 701.191 6959.03 690.393 6928.37 680.64L6853.14 655.562C6816.91 643.022 6783.47 629.438 6752.82 614.808C6722.17 599.482 6697.44 579.976 6678.63 556.291C6660.52 532.605 6651.46 501.953 6651.46 464.335C6651.46 408.604 6672.71 363.671 6715.2 329.535C6757.7 294.704 6817.96 277.288 6895.98 277.288C6952.41 277.288 6998.39 285.996 7033.91 303.412C7070.14 320.828 7097.31 344.165 7115.42 373.424C7133.53 401.986 7143.98 433.683 7146.77 468.515H6992.12C6988.63 443.436 6978.18 424.278 6960.77 411.042C6943.35 397.109 6919.67 390.143 6889.71 390.143C6862.54 390.143 6841.99 395.368 6828.06 405.817C6814.82 416.267 6808.2 430.548 6808.2 448.66C6808.2 466.773 6815.52 481.751 6830.15 493.593C6844.78 505.436 6867.07 516.234 6897.02 525.987L6972.26 550.021C7008.49 561.167 7041.58 574.403 7071.53 589.729C7102.18 604.359 7126.57 623.865 7144.68 648.247C7162.79 671.933 7171.85 702.933 7171.85 741.248C7171.85 799.765 7149.56 846.788 7104.97 882.317C7061.08 917.845 6996.99 935.61 6912.7 935.61Z" fill="#2B2B2B"/>
<defs>
<filter id="filter0_f_956_46549" x="824.297" y="58.9766" width="180.242" height="1044.95" filterUnits="userSpaceOnUse" color-interpolation-filters="sRGB">
<feFlood flood-opacity="0" result="BackgroundImageFix"/>
<feBlend mode="normal" in="SourceGraphic" in2="BackgroundImageFix" result="shape"/>
<feGaussianBlur stdDeviation="7.5" result="effect1_foregroundBlur_956_46549"/>
</filter>
<filter id="filter1_f_956_46549" x="237.707" y="58.9766" width="180.242" height="1044.95" filterUnits="userSpaceOnUse" color-interpolation-filters="sRGB">
<feFlood flood-opacity="0" result="BackgroundImageFix"/>
<feBlend mode="normal" in="SourceGraphic" in2="BackgroundImageFix" result="shape"/>
<feGaussianBlur stdDeviation="7.5" result="effect1_foregroundBlur_956_46549"/>
</filter>
<filter id="filter2_f_956_46549" x="1027.79" y="203.797" width="117.359" height="752.363" filterUnits="userSpaceOnUse" color-interpolation-filters="sRGB">
<feFlood flood-opacity="0" result="BackgroundImageFix"/>
<feBlend mode="normal" in="SourceGraphic" in2="BackgroundImageFix" result="shape"/>
<feGaussianBlur stdDeviation="15" result="effect1_foregroundBlur_956_46549"/>
</filter>
<filter id="filter3_f_956_46549" x="97.0977" y="203.797" width="117.359" height="752.363" filterUnits="userSpaceOnUse" color-interpolation-filters="sRGB">
<feFlood flood-opacity="0" result="BackgroundImageFix"/>
<feBlend mode="normal" in="SourceGraphic" in2="BackgroundImageFix" result="shape"/>
<feGaussianBlur stdDeviation="15" result="effect1_foregroundBlur_956_46549"/>
</filter>
<filter id="filter4_f_956_46549" x="1144.06" y="403.352" width="98.8438" height="331.168" filterUnits="userSpaceOnUse" color-interpolation-filters="sRGB">
<feFlood flood-opacity="0" result="BackgroundImageFix"/>
<feBlend mode="normal" in="SourceGraphic" in2="BackgroundImageFix" result="shape"/>
<feGaussianBlur stdDeviation="20" result="effect1_foregroundBlur_956_46549"/>
</filter>
<filter id="filter5_f_956_46549" x="0" y="403.352" width="98.8438" height="331.168" filterUnits="userSpaceOnUse" color-interpolation-filters="sRGB">
<feFlood flood-opacity="0" result="BackgroundImageFix"/>
<feBlend mode="normal" in="SourceGraphic" in2="BackgroundImageFix" result="shape"/>
<feGaussianBlur stdDeviation="20" result="effect1_foregroundBlur_956_46549"/>
</filter>
</defs>
</svg>

